<svg width="512" height="512" xmlns="http://www.w3.org/2000/svg">

 <g>
  <title>background</title>
  <rect fill="none" id="canvas_background" height="402" width="582" y="-1" x="-1"/>
 </g>
 <g>
  <title>Layer 1</title>
  <path fill="#bf0000" id="svg_2" fill-rule="evenodd" clip-rule="evenodd" d="m211.305,354.41l0,-9.568l-27.441,0c-2.206,0 -3.99,-1.785 -3.99,-3.99l0,-27.439l-9.567,0l0,27.439c0,2.205 -1.785,3.99 -3.99,3.99l-27.441,0l0,9.568l27.441,0c2.206,0 3.99,1.783 3.99,3.988l0,27.441l9.567,0l0,-27.441c0,-2.205 1.785,-3.988 3.99,-3.988l27.441,0zm7.979,-13.558l0,17.547c0,2.205 -1.785,3.99 -3.99,3.99l-27.439,0l0,27.439c0,2.205 -1.785,3.99 -3.991,3.99l-17.547,0c-2.206,0 -3.988,-1.785 -3.988,-3.99l0,-27.439l-27.441,0c-2.206,0 -3.99,-1.785 -3.99,-3.99l0,-17.547c0,-2.207 1.785,-3.989 3.99,-3.989l27.441,0l0,-27.44c0,-2.206 1.783,-3.99 3.988,-3.99l17.547,0c2.206,0 3.991,1.784 3.991,3.99l0,27.44l27.439,0c2.205,-0.001 3.99,1.782 3.99,3.989zm153.841,-87.446l0,-9.568l-72.43,0l0,9.568l72.43,0zm7.979,-13.558l0,17.547c0,2.206 -1.785,3.99 -3.99,3.99l-80.407,0c-2.205,0 -3.99,-1.784 -3.99,-3.99l0,-17.547c0,-2.172 1.785,-3.988 3.99,-3.988l80.407,0c2.204,-0.001 3.99,1.816 3.99,3.988zm-93.416,142.683c-13.622,-6.066 -25.916,-14.564 -36.295,-24.975c-16.995,-16.997 -28.413,-38.404 -33.115,-61.791l-0.164,-0.844l-0.031,-0.258l-0.227,-1.104l0,-0.13l-0.195,-0.972l-0.065,-0.52l-0.098,-0.585l-0.162,-0.907l-0.033,-0.229l-0.162,-1.102l0,-0.163l-0.129,-0.94l-0.097,-0.582l-0.065,-0.553l-0.098,-0.941l-0.032,-0.194l-0.13,-1.103l0,-0.227c-0.52,-5.061 -0.779,-10.217 -0.553,-15.277l0,-0.292l0,-0.065l0.033,-0.226l0,-0.325l0.032,-0.291l0.033,-0.617l0.032,-0.227l0,-0.064l0.033,-0.292l0,-0.325l0.032,-0.293l0.033,-0.291l0.032,-0.324l0,-0.13l0.033,-0.161l0.032,-0.325l0.033,-0.291l0.032,-0.325l0.033,-0.324l0.065,-0.291l0.032,-0.324l0.033,-0.325l0.032,-0.292l0.065,-0.324l0.033,-0.324l0.032,-0.195l0.033,-0.129l0.032,-0.292l0.065,-0.325l0.033,-0.324l0.065,-0.324l0.032,-0.324l0.031,-0.065l0.034,-0.258l0.064,-0.325l0.065,-0.324l0.032,-0.324l0.065,-0.325l0.065,-0.26l0,-0.065l0.065,-0.324l0.065,-0.355c1.493,-7.493 3.569,-14.402 6.163,-21.797l0.13,-0.324l0.26,-0.714l0.098,-0.227l0.032,-0.099l0.097,-0.355l0.13,-0.356l0.129,-0.325l0.13,-0.355l0.13,-0.358l0.13,-0.291l0,-0.033l0.13,-0.356l0.13,-0.356l0.13,-0.358l0.13,-0.355l0.162,-0.324c-16.737,-29.679 -40.512,-69.832 -50.534,-103.501c-8.758,28.704 -30.327,67.044 -52.383,106.257c-29.841,53.001 -60.589,107.654 -60.589,139.732c0,31.203 12.65,59.453 33.117,79.887c20.434,20.435 48.684,33.085 79.887,33.085c58.643,-0.006 107.717,-44.993 112.581,-103.474zm131.494,-97.371c0.064,-2.174 1.883,-3.926 4.055,-3.86c2.206,0.034 3.926,1.882 3.893,4.056c0,0.194 -1.006,66.849 -59.031,69.541c-2.207,0.096 -4.056,-1.59 -4.152,-3.796c-0.064,-2.173 1.621,-4.054 3.794,-4.118c50.533,-2.37 51.441,-61.661 51.441,-61.823zm-161.821,101.004c0.065,-2.174 1.883,-3.926 4.056,-3.861c2.205,0.034 3.925,1.85 3.892,4.056c0,0.194 -1.005,66.85 -59.031,69.541c-2.206,0.097 -4.055,-1.621 -4.152,-3.796c-0.065,-2.172 1.622,-4.053 3.794,-4.151c50.535,-2.337 51.441,-61.628 51.441,-61.789zm-30.878,-132.467c-0.388,1.59 -0.712,3.113 -1.037,4.606l-0.065,0.325l-0.227,1.2l-0.033,0.291l-0.065,0.292l-0.065,0.293l0,0.031l-0.031,0.26l-0.065,0.291l-0.034,0.293l-0.065,0.291l-0.031,0.291l-0.034,0.26l0,0.033l-0.065,0.292l-0.031,0.291l-0.034,0.294l-0.065,0.259l-0.096,0.876l-0.033,0.291l-0.032,0.26l-0.033,0.291l-0.032,0.293l-0.033,0.162l0,0.098l-0.032,0.291l-0.032,0.26l-0.033,0.292l0,0.26l-0.032,0.291l-0.033,0.13l0,0.13l0,0.293l-0.032,0.26c-0.325,5.188 -0.065,10.347 0.421,15.503l0.031,0.227l0.13,1.07l0,0.13l0.358,2.821l0.031,0.195l0.195,1.233l0.13,0.843l0.065,0.553l0.097,0.486l0.163,0.906l0.195,1.169l0.065,0.227c4.248,22.12 15.017,42.458 31.073,58.48c20.434,20.435 48.684,33.084 79.887,33.084c31.172,0 59.423,-12.649 79.889,-33.084c20.434,-20.435 33.084,-48.686 33.084,-79.887c0,-31.853 -30.1,-85.11 -59.616,-137.397c-22.38,-39.701 -44.501,-78.818 -53.388,-108.625c-8.758,28.705 -30.328,67.076 -52.384,106.29c-19.2,34.089 -48.003,80.634 -58.026,121.405z"/>
 </g>
</svg>