<svg xmlns="http://www.w3.org/2000/svg" width="266.667" height="266.667" viewBox="0 0 200 200"><path d="M82.54 138.44v-3.738H71.82a1.56 1.56 0 0 1-1.559-1.559v-10.72h-3.734v10.72a1.56 1.56 0 0 1-1.559 1.559H54.25v3.738h10.72A1.56 1.56 0 0 1 66.527 140v10.72h3.734V140a1.56 1.56 0 0 1 1.559-1.559zm3.117-5.297V140a1.56 1.56 0 0 1-1.559 1.559H73.383v10.72a1.56 1.56 0 0 1-1.562 1.559H64.97a1.56 1.56 0 0 1-1.559-1.559v-10.72H52.69A1.56 1.56 0 0 1 51.133 140v-6.855c0-.863.695-1.56 1.56-1.56H63.4v-10.72a1.56 1.56 0 0 1 1.559-1.559h6.852a1.56 1.56 0 0 1 1.563 1.559v10.72h10.715c.863 0 1.56.695 1.56 1.56zm60.094-34.156V95.25h-28.29v3.738zm3.117-5.297v6.855c0 .86-.695 1.555-1.56 1.555h-31.406c-.863 0-1.56-.695-1.56-1.555V93.69c0-.848.695-1.56 1.56-1.56h31.406c.863 0 1.56.71 1.56 1.56zm-36.488 55.734a47.1 47.1 0 0 1-14.18-9.754c-6.637-6.64-11.098-15.004-12.934-24.14l-.066-.328-.012-.102-.086-.43v-.05l-.078-.38-.023-.203-.04-.23-.062-.352-.016-.1-.062-.434v-.062l-.05-.367-.04-.227-.023-.215-.04-.367-.012-.078-.05-.43v-.1c-.203-1.977-.305-3.992-.215-5.97v-.137l.012-.1v-.125l.012-.113.012-.242.016-.1v-.023l.012-.113v-.13l.023-.227.016-.13v-.05l.012-.062.012-.125.012-.113.016-.13.012-.125.023-.113.016-.13.012-.125.012-.117.027-.125.012-.125.012-.078.012-.05.016-.113.023-.125.012-.13.027-.125.012-.13.012-.023.016-.102.023-.125.027-.13.012-.125.023-.13.027-.102v-.023l.023-.13.027-.137c.582-2.926 1.395-5.625 2.406-8.516l.05-.125.102-.28.04-.086.012-.04.04-.14.05-.137.05-.13.05-.137.05-.14.05-.113v-.016l.05-.137.102-.28.05-.137.063-.125c-6.54-11.594-15.824-27.28-19.742-40.434-3.418 11.215-11.844 26.19-20.46 41.508-11.656 20.703-23.668 42.055-23.668 54.582 0 12.19 4.94 23.227 12.938 31.207 7.98 7.984 19.016 12.926 31.207 12.926 22.906-.004 42.074-17.578 43.977-40.422zm51.363-38.035c.027-.848.734-1.535 1.586-1.508.86.012 1.53.734 1.52 1.586 0 .074-.395 26.11-23.06 27.164-.863.035-1.586-.62-1.62-1.484-.027-.848.633-1.582 1.48-1.61 19.738-.926 20.094-24.086 20.094-24.148zm-63.21 39.453c.027-.848.734-1.53 1.586-1.508a1.55 1.55 0 0 1 1.52 1.586c0 .074-.395 26.113-23.06 27.164-.863.04-1.586-.633-1.62-1.484-.027-.848.633-1.582 1.48-1.62 19.742-.9 20.094-24.074 20.094-24.137zM88.47 99.102l-.402 1.797-.027.13-.1.47-.012.113-.023.113-.027.113v.012l-.012.102-.023.117-.016.113-.023.113-.016.113-.012.102v.012l-.023.117-.012.113-.016.113-.023.102-.04.344-.012.113-.012.102-.016.113-.012.113-.012.063v.04l-.012.113-.016.102-.012.113v.102l-.012.113-.012.05v.168l-.016.102c-.125 2.027-.023 4.04.164 6.055l.016.1.05.418v.05l.137 1.102.012.074.078.484.05.328.023.215.04.19.063.352.078.457.023.1a43.94 43.94 0 0 0 12.141 22.844c7.98 7.984 19.016 12.922 31.203 12.922 12.18 0 23.215-4.937 31.207-12.922a43.99 43.99 0 0 0 12.926-31.207c0-12.44-11.758-33.246-23.29-53.668-8.742-15.508-17.383-30.79-20.855-42.434-3.418 11.215-11.844 26.203-20.46 41.52-7.5 13.316-18.75 31.5-22.668 47.426zm0 0" fill-rule="evenodd" fill="rgb(74.901961%,0%,0%)"/></svg>