<?xml version="1.0" encoding="UTF-8"?>
<svg xmlns="http://www.w3.org/2000/svg" xmlns:xlink="http://www.w3.org/1999/xlink" width="60pt" height="60pt" viewBox="0 0 60 60" version="1.1">
<g id="surface1">
<path style=" stroke:none;fill-rule:evenodd;fill:rgb(74.901961%,0%,0%);fill-opacity:1;" d="M 24.730469 41.480469 L 24.730469 40.359375 L 21.519531 40.359375 C 21.261719 40.359375 21.050781 40.152344 21.050781 39.894531 L 21.050781 36.679688 L 19.933594 36.679688 L 19.933594 39.894531 C 19.933594 40.152344 19.722656 40.359375 19.464844 40.359375 L 16.253906 40.359375 L 16.253906 41.480469 L 19.464844 41.480469 C 19.722656 41.480469 19.933594 41.691406 19.933594 41.949219 L 19.933594 45.160156 L 21.050781 45.160156 L 21.050781 41.949219 C 21.050781 41.691406 21.261719 41.480469 21.519531 41.480469 Z M 25.664062 39.894531 L 25.664062 41.949219 C 25.664062 42.207031 25.457031 42.414062 25.199219 42.414062 L 21.988281 42.414062 L 21.988281 45.625 C 21.988281 45.886719 21.777344 46.09375 21.519531 46.09375 L 19.464844 46.09375 C 19.207031 46.09375 19 45.882812 19 45.625 L 19 42.414062 L 15.789062 42.414062 C 15.53125 42.414062 15.320312 42.207031 15.320312 41.949219 L 15.320312 39.894531 C 15.320312 39.636719 15.527344 39.425781 15.789062 39.425781 L 18.996094 39.425781 L 18.996094 36.214844 C 18.996094 35.957031 19.207031 35.746094 19.464844 35.746094 L 21.515625 35.746094 C 21.640625 35.746094 21.757812 35.796875 21.847656 35.882812 C 21.933594 35.972656 21.984375 36.089844 21.984375 36.214844 L 21.984375 39.425781 L 25.195312 39.425781 C 25.453125 39.425781 25.664062 39.632812 25.664062 39.894531 Z M 43.671875 29.660156 L 43.671875 28.539062 L 35.195312 28.539062 L 35.195312 29.660156 Z M 44.605469 28.070312 L 44.605469 30.125 C 44.605469 30.382812 44.394531 30.59375 44.136719 30.59375 L 34.726562 30.59375 C 34.46875 30.59375 34.261719 30.382812 34.261719 30.125 L 34.261719 28.070312 C 34.261719 27.816406 34.46875 27.605469 34.726562 27.605469 L 44.136719 27.605469 C 44.394531 27.605469 44.605469 27.816406 44.605469 28.070312 Z M 33.671875 44.769531 C 32.089844 44.066406 30.648438 43.074219 29.421875 41.847656 C 27.433594 39.859375 26.097656 37.351562 25.546875 34.617188 L 25.527344 34.515625 L 25.523438 34.488281 L 25.5 34.359375 L 25.5 34.34375 L 25.476562 34.230469 L 25.46875 34.167969 L 25.457031 34.097656 L 25.4375 33.992188 L 25.433594 33.964844 L 25.414062 33.835938 L 25.414062 33.816406 L 25.398438 33.707031 L 25.386719 33.636719 L 25.378906 33.574219 L 25.367188 33.464844 L 25.363281 33.441406 L 25.351562 33.3125 L 25.351562 33.28125 C 25.289062 32.6875 25.257812 32.085938 25.285156 31.492188 L 25.285156 31.449219 L 25.289062 31.421875 L 25.289062 31.382812 L 25.292969 31.351562 L 25.296875 31.277344 L 25.300781 31.246094 L 25.300781 31.242188 L 25.304688 31.207031 L 25.304688 31.167969 L 25.3125 31.101562 L 25.316406 31.0625 L 25.316406 31.046875 L 25.320312 31.027344 L 25.324219 30.988281 L 25.328125 30.957031 L 25.335938 30.878906 L 25.34375 30.84375 L 25.347656 30.804688 L 25.355469 30.734375 L 25.363281 30.695312 L 25.367188 30.660156 L 25.371094 30.636719 L 25.375 30.621094 L 25.378906 30.585938 L 25.386719 30.550781 L 25.390625 30.511719 L 25.398438 30.472656 L 25.402344 30.433594 L 25.402344 30.425781 L 25.410156 30.398438 L 25.414062 30.359375 L 25.425781 30.320312 L 25.425781 30.28125 L 25.433594 30.242188 L 25.441406 30.214844 L 25.441406 30.207031 L 25.449219 30.167969 L 25.457031 30.125 C 25.632812 29.25 25.875 28.441406 26.179688 27.574219 L 26.191406 27.539062 L 26.222656 27.453125 L 26.234375 27.429688 L 26.238281 27.414062 L 26.25 27.375 L 26.265625 27.332031 L 26.296875 27.253906 L 26.3125 27.210938 L 26.328125 27.175781 L 26.328125 27.171875 L 26.339844 27.132812 L 26.371094 27.046875 L 26.386719 27.007812 L 26.40625 26.96875 C 24.445312 23.496094 21.664062 18.796875 20.492188 14.855469 C 19.464844 18.214844 16.941406 22.699219 14.359375 27.289062 C 10.867188 33.492188 7.269531 39.890625 7.269531 43.644531 C 7.269531 47.296875 8.75 50.605469 11.144531 52.996094 C 13.535156 55.386719 16.84375 56.867188 20.496094 56.867188 C 27.359375 56.867188 33.101562 51.601562 33.671875 44.757812 Z M 49.0625 33.375 C 49.070312 33.121094 49.28125 32.914062 49.535156 32.921875 C 49.792969 32.925781 49.996094 33.144531 49.992188 33.398438 C 49.992188 33.421875 49.875 41.222656 43.082031 41.539062 C 42.824219 41.546875 42.609375 41.351562 42.597656 41.09375 C 42.589844 40.839844 42.789062 40.617188 43.039062 40.609375 C 48.953125 40.332031 49.0625 33.394531 49.0625 33.375 Z M 30.121094 45.195312 C 30.128906 44.941406 30.34375 44.738281 30.597656 44.746094 C 30.722656 44.746094 30.839844 44.796875 30.925781 44.886719 C 31.007812 44.976562 31.054688 45.097656 31.054688 45.21875 C 31.054688 45.242188 30.933594 53.042969 24.144531 53.359375 C 23.886719 53.371094 23.667969 53.167969 23.65625 52.914062 C 23.648438 52.660156 23.847656 52.441406 24.101562 52.429688 C 30.015625 52.160156 30.121094 45.214844 30.121094 45.195312 Z M 26.507812 29.695312 L 26.386719 30.230469 L 26.378906 30.269531 L 26.347656 30.410156 L 26.347656 30.445312 L 26.339844 30.480469 L 26.332031 30.511719 L 26.332031 30.515625 L 26.328125 30.546875 L 26.320312 30.582031 L 26.316406 30.617188 L 26.308594 30.648438 L 26.304688 30.683594 L 26.300781 30.714844 L 26.300781 30.71875 L 26.292969 30.753906 L 26.289062 30.789062 L 26.285156 30.820312 L 26.277344 30.851562 L 26.265625 30.953125 L 26.261719 30.988281 L 26.257812 31.019531 L 26.253906 31.054688 L 26.25 31.085938 L 26.246094 31.105469 L 26.246094 31.117188 L 26.242188 31.152344 L 26.234375 31.214844 L 26.234375 31.246094 L 26.230469 31.28125 L 26.226562 31.296875 L 26.226562 31.34375 L 26.222656 31.375 C 26.183594 31.984375 26.214844 32.585938 26.273438 33.191406 L 26.277344 33.21875 L 26.292969 33.34375 L 26.292969 33.359375 L 26.332031 33.691406 L 26.335938 33.714844 L 26.359375 33.859375 L 26.375 33.957031 L 26.382812 34.019531 L 26.394531 34.078125 L 26.414062 34.183594 L 26.4375 34.320312 L 26.441406 34.351562 C 26.941406 36.945312 28.207031 39.328125 30.082031 41.195312 C 32.472656 43.585938 35.777344 45.066406 39.429688 45.066406 C 43.078125 45.066406 46.386719 43.585938 48.78125 41.195312 C 51.265625 38.71875 52.65625 35.351562 52.652344 31.84375 C 52.652344 28.117188 49.128906 21.882812 45.675781 15.765625 C 43.054688 11.117188 40.464844 6.539062 39.425781 3.050781 C 38.402344 6.410156 35.878906 10.902344 33.296875 15.488281 C 31.046875 19.480469 27.679688 24.929688 26.503906 29.699219 Z M 26.507812 29.695312 "/>
</g>
</svg>
